ISO-10303-21;
HEADER;
FILE_DESCRIPTION(('ViewDefinition [CoordinationView]'),'2;1');
FILE_NAME('','2026-07-31T10:00:25',(''),(''),'IfcOpenShell 0.8.5-1c5b825','IfcOpenShell 0.8.5-1c5b825','');
FILE_SCHEMA(('IFC4'));
ENDSEC;
DATA;
#1=IFCPROJECT('2hVfMO6uTFchxC5Ti4U6V8',$,'Grade It \X2\2014\X0\ Foundations (mat, footings, columns, retaining wall)',$,$,$,$,(#10),#5);
#2=IFCSIUNIT(*,.LENGTHUNIT.,$,.METRE.);
#3=IFCSIUNIT(*,.AREAUNIT.,$,.SQUARE_METRE.);
#4=IFCSIUNIT(*,.VOLUMEUNIT.,$,.CUBIC_METRE.);
#5=IFCUNITASSIGNMENT((#3,#4,#2));
#6=IFCCARTESIANPOINT((0.,0.,0.));
#7=IFCDIRECTION((0.,0.,1.));
#8=IFCDIRECTION((1.,0.,0.));
#9=IFCAXIS2PLACEMENT3D(#6,#7,#8);
#10=IFCGEOMETRICREPRESENTATIONCONTEXT($,'Model',3,1.0000000000000001E-05,#9,$);
#11=IFCGEOMETRICREPRESENTATIONSUBCONTEXT('Body','Model',*,*,*,*,#10,$,.MODEL_VIEW.,$);
#12=IFCSITE('3$Gg_UZn18kvN3HP06lgPL',$,'Grade It Demo Site',$,$,$,$,$,$,$,$,$,$,$);
#13=IFCBUILDING('1vFtKw5AT3suGaAPBRdrUG',$,'Foundations',$,$,$,$,$,$,$,$,$);
#14=IFCBUILDINGSTOREY('2Vw6GonovFF9lnWHX23CkV',$,'Grade 620.0',$,$,$,$,$,$,$);
#15=IFCCARTESIANPOINT((0.,0.,0.));
#16=IFCAXIS2PLACEMENT3D(#15,$,$);
#17=IFCLOCALPLACEMENT($,#16);
#18=IFCSURFACESTYLE('Concrete',.BOTH.,(#19));
#19=IFCSURFACESTYLESHADING(#20,0.);
#20=IFCCOLOURRGB($,0.71999999999999997,0.69999999999999996,0.66000000000000003);
#21=IFCMATERIAL('Concrete C35',$,$);
#22=IFCSTYLEDITEM($,(#18),'Concrete');
#23=IFCSTYLEDREPRESENTATION(#11,'Body',$,(#22));
#24=IFCMATERIALDEFINITIONREPRESENTATION($,$,(#23),#21);
#25=IFCSURFACESTYLE('ConcreteMat',.BOTH.,(#26));
#26=IFCSURFACESTYLESHADING(#27,0.);
#27=IFCCOLOURRGB($,0.73999999999999999,0.72999999999999998,0.69999999999999996);
#28=IFCMATERIAL('Concrete - Mat',$,$);
#29=IFCSTYLEDITEM($,(#25),'ConcreteMat');
#30=IFCSTYLEDREPRESENTATION(#11,'Body',$,(#29));
#31=IFCMATERIALDEFINITIONREPRESENTATION($,$,(#30),#28);
#32=IFCSURFACESTYLE('ConcreteW',.BOTH.,(#33));
#33=IFCSURFACESTYLESHADING(#34,0.);
#34=IFCCOLOURRGB($,0.69999999999999996,0.68999999999999995,0.66000000000000003);
#35=IFCMATERIAL('Concrete - Wall',$,$);
#36=IFCSTYLEDITEM($,(#32),'ConcreteW');
#37=IFCSTYLEDREPRESENTATION(#11,'Body',$,(#36));
#38=IFCMATERIALDEFINITIONREPRESENTATION($,$,(#37),#35);
#39=IFCSURFACESTYLE('ConcreteC',.BOTH.,(#40));
#40=IFCSURFACESTYLESHADING(#41,0.);
#41=IFCCOLOURRGB($,0.76000000000000001,0.75,0.71999999999999997);
#42=IFCMATERIAL('Concrete - Column',$,$);
#43=IFCSTYLEDITEM($,(#39),'ConcreteC');
#44=IFCSTYLEDREPRESENTATION(#11,'Body',$,(#43));
#45=IFCMATERIALDEFINITIONREPRESENTATION($,$,(#44),#42);
#46=IFCSURFACESTYLE('Steel',.BOTH.,(#47));
#47=IFCSURFACESTYLESHADING(#48,0.);
#48=IFCCOLOURRGB($,0.34999999999999998,0.32000000000000001,0.28000000000000003);
#49=IFCMATERIAL('Steel',$,$);
#50=IFCSTYLEDITEM($,(#46),'Steel');
#51=IFCSTYLEDREPRESENTATION(#11,'Body',$,(#50));
#52=IFCMATERIALDEFINITIONREPRESENTATION($,$,(#51),#49);
#53=IFCSURFACESTYLE('Rebar',.BOTH.,(#54));
#54=IFCSURFACESTYLESHADING(#55,0.);
#55=IFCCOLOURRGB($,0.62,0.41999999999999998,0.23999999999999999);
#56=IFCMATERIAL('Reinforcing',$,$);
#57=IFCSTYLEDITEM($,(#53),'Rebar');
#58=IFCSTYLEDREPRESENTATION(#11,'Body',$,(#57));
#59=IFCMATERIALDEFINITIONREPRESENTATION($,$,(#58),#56);
#60=IFCSURFACESTYLE('Hole',.BOTH.,(#61));
#61=IFCSURFACESTYLESHADING(#62,0.);
#62=IFCCOLOURRGB($,0.14999999999999999,0.14999999999999999,0.14999999999999999);
#63=IFCMATERIAL('Weep Outlet',$,$);
#64=IFCSTYLEDITEM($,(#60),'Hole');
#65=IFCSTYLEDREPRESENTATION(#11,'Body',$,(#64));
#66=IFCMATERIALDEFINITIONREPRESENTATION($,$,(#65),#63);
#67=IFCSLAB('0n2FrN0If77vx$4IjN3r2p',$,'Mat Foundation',$,$,#84,#74,$,.BASESLAB.);
#68=IFCCARTESIANPOINTLIST2D(((-5.,-4.),(5.,-4.),(5.,4.),(-5.,4.)));
#69=IFCINDEXEDPOLYCURVE(#68,$,$);
#70=IFCDIRECTION((0.,0.,1.));
#71=IFCARBITRARYCLOSEDPROFILEDEF(.AREA.,$,#69);
#72=IFCEXTRUDEDAREASOLID(#71,$,#70,0.5);
#73=IFCSHAPEREPRESENTATION(#11,'Body','SweptSolid',(#72));
#74=IFCPRODUCTDEFINITIONSHAPE($,$,(#73));
#78=IFCRELASSOCIATESMATERIAL('26Lr5QOTn4xw$B06lZ3HWi',$,$,$,(#67),#28);
#79=IFCRELCONTAINEDINSPATIALSTRUCTURE('39$6eX8XD02eOPZZP5aAVK',$,$,$,(#141,#339,#610,#810,#447,#537,#1008,#737,#792,#519,#123,#1155,#303,#664,#1137,#591,#285,#756,#393,#483,#177,#954,#375,#465,#1176,#267,#828,#555,#159,#249,#1116,#86,#231,#918,#429,#900,#321,#411,#882,#1098,#213,#990,#719,#1080,#774,#501,#105,#195,#972,#1062,#1216,#864,#1236,#646,#701,#1196,#846,#67,#573,#628,#683,#1044,#936,#1026,#357),#14);
#80=IFCCARTESIANPOINT((0.,0.,-0.25));
#81=IFCDIRECTION((0.,0.,1.));
#82=IFCDIRECTION((1.,0.,0.));
#83=IFCAXIS2PLACEMENT3D(#80,#81,#82);
#84=IFCLOCALPLACEMENT($,#83);
#85=IFCCIRCLEPROFILEDEF(.AREA.,$,$,0.017999999999999999);
#86=IFCFASTENER('35_YawZ_vFNOWwoiFWV_w3',$,'Mat Anchor Bolt',$,$,#103,#94,$,$);
#87=IFCCARTESIANPOINT((0.,0.,0.));
#88=IFCDIRECTION((0.,0.,1.));
#89=IFCDIRECTION((1.,0.,0.));
#90=IFCAXIS2PLACEMENT3D(#87,#88,#89);
#91=IFCDIRECTION((0.,0.,1.));
#92=IFCEXTRUDEDAREASOLID(#85,#90,#91,0.34000000000000002);
#93=IFCSHAPEREPRESENTATION(#11,'Body','SweptSolid',(#92));
#94=IFCPRODUCTDEFINITIONSHAPE($,$,(#93));
#98=IFCRELASSOCIATESMATERIAL('2wExM3kFr7hwPbvHW6rJU6',$,$,$,(#195,#141,#86,#339,#285,#231,#249,#555,#159,#447,#537,#393,#429,#483,#501,#177,#573,#519,#123,#321,#411,#375,#465,#267,#213,#357,#303,#105),#49);
#99=IFCCARTESIANPOINT((0.,3.3999999999999999,0.25));
#100=IFCDIRECTION((0.,0.,1.));
#101=IFCDIRECTION((1.,0.,0.));
#102=IFCAXIS2PLACEMENT3D(#99,#100,#101);
#103=IFCLOCALPLACEMENT($,#102);
#104=IFCCIRCLEPROFILEDEF(.AREA.,$,$,0.033000000000000002);
#105=IFCFASTENER('05yNuYgOz6vOg$LiYE6jJX',$,'Mat Anchor Nut',$,$,#121,#113,$,$);
#106=IFCCARTESIANPOINT((0.,0.,0.));
#107=IFCDIRECTION((0.,0.,1.));
#108=IFCDIRECTION((1.,0.,0.));
#109=IFCAXIS2PLACEMENT3D(#106,#107,#108);
#110=IFCDIRECTION((0.,0.,1.));
#111=IFCEXTRUDEDAREASOLID(#104,#109,#110,0.029999999999999999);
#112=IFCSHAPEREPRESENTATION(#11,'Body','SweptSolid',(#111));
#113=IFCPRODUCTDEFINITIONSHAPE($,$,(#112));
#117=IFCCARTESIANPOINT((0.,3.3999999999999999,0.60999999999999999));
#118=IFCDIRECTION((0.,0.,1.));
#119=IFCDIRECTION((1.,0.,0.));
#120=IFCAXIS2PLACEMENT3D(#117,#118,#119);
#121=IFCLOCALPLACEMENT($,#120);
#122=IFCCIRCLEPROFILEDEF(.AREA.,$,$,0.017999999999999999);
#123=IFCFASTENER('1zoWjpmYTF0AMJIZwuK9FO',$,'Mat Anchor Bolt',$,$,#139,#131,$,$);
#124=IFCCARTESIANPOINT((0.,0.,0.));
#125=IFCDIRECTION((0.,0.,1.));
#126=IFCDIRECTION((1.,0.,0.));
#127=IFCAXIS2PLACEMENT3D(#124,#125,#126);
#128=IFCDIRECTION((0.,0.,1.));
#129=IFCEXTRUDEDAREASOLID(#122,#127,#128,0.34000000000000002);
#130=IFCSHAPEREPRESENTATION(#11,'Body','SweptSolid',(#129));
#131=IFCPRODUCTDEFINITIONSHAPE($,$,(#130));
#135=IFCCARTESIANPOINT((1.909088452117256,3.063294150868225,0.25));
#136=IFCDIRECTION((0.,0.,1.));
#137=IFCDIRECTION((1.,0.,0.));
#138=IFCAXIS2PLACEMENT3D(#135,#136,#137);
#139=IFCLOCALPLACEMENT($,#138);
#140=IFCCIRCLEPROFILEDEF(.AREA.,$,$,0.033000000000000002);
#141=IFCFASTENER('0HSq8BeYnApxOT$yeEyX9O',$,'Mat Anchor Nut',$,$,#157,#149,$,$);
#142=IFCCARTESIANPOINT((0.,0.,0.));
#143=IFCDIRECTION((0.,0.,1.));
#144=IFCDIRECTION((1.,0.,0.));
#145=IFCAXIS2PLACEMENT3D(#142,#143,#144);
#146=IFCDIRECTION((0.,0.,1.));
#147=IFCEXTRUDEDAREASOLID(#140,#145,#146,0.029999999999999999);
#148=IFCSHAPEREPRESENTATION(#11,'Body','SweptSolid',(#147));
#149=IFCPRODUCTDEFINITIONSHAPE($,$,(#148));
#153=IFCCARTESIANPOINT((1.909088452117256,3.063294150868225,0.60999999999999999));
#154=IFCDIRECTION((0.,0.,1.));
#155=IFCDIRECTION((1.,0.,0.));
#156=IFCAXIS2PLACEMENT3D(#153,#154,#155);
#157=IFCLOCALPLACEMENT($,#156);
#158=IFCCIRCLEPROFILEDEF(.AREA.,$,$,0.017999999999999999);
#159=IFCFASTENER('0Wo0K$enr078AwHnaGr7g6',$,'Mat Anchor Bolt',$,$,#175,#167,$,$);
#160=IFCCARTESIANPOINT((0.,0.,0.));
#161=IFCDIRECTION((0.,0.,1.));
#162=IFCDIRECTION((1.,0.,0.));
#163=IFCAXIS2PLACEMENT3D(#160,#161,#162);
#164=IFCDIRECTION((0.,0.,1.));
#165=IFCEXTRUDEDAREASOLID(#158,#163,#164,0.34000000000000002);
#166=IFCSHAPEREPRESENTATION(#11,'Body','SweptSolid',(#165));
#167=IFCPRODUCTDEFINITIONSHAPE($,$,(#166));
#171=IFCCARTESIANPOINT((3.4400585228593314,2.1198653263196943,0.25));
#172=IFCDIRECTION((0.,0.,1.));
#173=IFCDIRECTION((1.,0.,0.));
#174=IFCAXIS2PLACEMENT3D(#171,#172,#173);
#175=IFCLOCALPLACEMENT($,#174);
#176=IFCCIRCLEPROFILEDEF(.AREA.,$,$,0.033000000000000002);
#177=IFCFASTENER('0klJ_EHDn8VAcowmksjSpx',$,'Mat Anchor Nut',$,$,#193,#185,$,$);
#178=IFCCARTESIANPOINT((0.,0.,0.));
#179=IFCDIRECTION((0.,0.,1.));
#180=IFCDIRECTION((1.,0.,0.));
#181=IFCAXIS2PLACEMENT3D(#178,#179,#180);
#182=IFCDIRECTION((0.,0.,1.));
#183=IFCEXTRUDEDAREASOLID(#176,#181,#182,0.029999999999999999);
#184=IFCSHAPEREPRESENTATION(#11,'Body','SweptSolid',(#183));
#185=IFCPRODUCTDEFINITIONSHAPE($,$,(#184));
#189=IFCCARTESIANPOINT((3.4400585228593314,2.1198653263196943,0.60999999999999999));
#190=IFCDIRECTION((0.,0.,1.));
#191=IFCDIRECTION((1.,0.,0.));
#192=IFCAXIS2PLACEMENT3D(#189,#190,#191);
#193=IFCLOCALPLACEMENT($,#192);
#194=IFCCIRCLEPROFILEDEF(.AREA.,$,$,0.017999999999999999);
#195=IFCFASTENER('0Gd3qvgGnDzvutr5yJuwQ8',$,'Mat Anchor Bolt',$,$,#211,#203,$,$);
#196=IFCCARTESIANPOINT((0.,0.,0.));
#197=IFCDIRECTION((0.,0.,1.));
#198=IFCDIRECTION((1.,0.,0.));
#199=IFCAXIS2PLACEMENT3D(#196,#197,#198);
#200=IFCDIRECTION((0.,0.,1.));
#201=IFCEXTRUDEDAREASOLID(#194,#199,#200,0.34000000000000002);
#202=IFCSHAPEREPRESENTATION(#11,'Body','SweptSolid',(#201));
#203=IFCPRODUCTDEFINITIONSHAPE($,$,(#202));
#207=IFCCARTESIANPOINT((4.2896828136000247,0.75657117545146912,0.25));
#208=IFCDIRECTION((0.,0.,1.));
#209=IFCDIRECTION((1.,0.,0.));
#210=IFCAXIS2PLACEMENT3D(#207,#208,#209);
#211=IFCLOCALPLACEMENT($,#210);
#212=IFCCIRCLEPROFILEDEF(.AREA.,$,$,0.033000000000000002);
#213=IFCFASTENER('3QBWnnS0PFtOCmfSambbjI',$,'Mat Anchor Nut',$,$,#229,#221,$,$);
#214=IFCCARTESIANPOINT((0.,0.,0.));
#215=IFCDIRECTION((0.,0.,1.));
#216=IFCDIRECTION((1.,0.,0.));
#217=IFCAXIS2PLACEMENT3D(#214,#215,#216);
#218=IFCDIRECTION((0.,0.,1.));
#219=IFCEXTRUDEDAREASOLID(#212,#217,#218,0.029999999999999999);
#220=IFCSHAPEREPRESENTATION(#11,'Body','SweptSolid',(#219));
#221=IFCPRODUCTDEFINITIONSHAPE($,$,(#220));
#225=IFCCARTESIANPOINT((4.2896828136000247,0.75657117545146912,0.60999999999999999));
#226=IFCDIRECTION((0.,0.,1.));
#227=IFCDIRECTION((1.,0.,0.));
#228=IFCAXIS2PLACEMENT3D(#225,#226,#227);
#229=IFCLOCALPLACEMENT($,#228);
#230=IFCCIRCLEPROFILEDEF(.AREA.,$,$,0.017999999999999999);
#231=IFCFASTENER('0ub0P9udn91wNsgudcG8kb',$,'Mat Anchor Bolt',$,$,#247,#239,$,$);
#232=IFCCARTESIANPOINT((0.,0.,0.));
#233=IFCDIRECTION((0.,0.,1.));
#234=IFCDIRECTION((1.,0.,0.));
#235=IFCAXIS2PLACEMENT3D(#232,#233,#234);
#236=IFCDIRECTION((0.,0.,1.));
#237=IFCEXTRUDEDAREASOLID(#230,#235,#236,0.34000000000000002);
#238=IFCSHAPEREPRESENTATION(#11,'Body','SweptSolid',(#237));
#239=IFCPRODUCTDEFINITIONSHAPE($,$,(#238));
#243=IFCCARTESIANPOINT((4.2896828136000247,-0.75657117545146868,0.25));
#244=IFCDIRECTION((0.,0.,1.));
#245=IFCDIRECTION((1.,0.,0.));
#246=IFCAXIS2PLACEMENT3D(#243,#244,#245);
#247=IFCLOCALPLACEMENT($,#246);
#248=IFCCIRCLEPROFILEDEF(.AREA.,$,$,0.033000000000000002);
#249=IFCFASTENER('2YJvG643fCEfNfGezu4dWy',$,'Mat Anchor Nut',$,$,#265,#257,$,$);
#250=IFCCARTESIANPOINT((0.,0.,0.));
#251=IFCDIRECTION((0.,0.,1.));
#252=IFCDIRECTION((1.,0.,0.));
#253=IFCAXIS2PLACEMENT3D(#250,#251,#252);
#254=IFCDIRECTION((0.,0.,1.));
#255=IFCEXTRUDEDAREASOLID(#248,#253,#254,0.029999999999999999);
#256=IFCSHAPEREPRESENTATION(#11,'Body','SweptSolid',(#255));
#257=IFCPRODUCTDEFINITIONSHAPE($,$,(#256));
#261=IFCCARTESIANPOINT((4.2896828136000247,-0.75657117545146868,0.60999999999999999));
#262=IFCDIRECTION((0.,0.,1.));
#263=IFCDIRECTION((1.,0.,0.));
#264=IFCAXIS2PLACEMENT3D(#261,#262,#263);
#265=IFCLOCALPLACEMENT($,#264);
#266=IFCCIRCLEPROFILEDEF(.AREA.,$,$,0.017999999999999999);
#267=IFCFASTENER('1$OHTcC$15eBQCmZucCX81',$,'Mat Anchor Bolt',$,$,#283,#275,$,$);
#268=IFCCARTESIANPOINT((0.,0.,0.));
#269=IFCDIRECTION((0.,0.,1.));
#270=IFCDIRECTION((1.,0.,0.));
#271=IFCAXIS2PLACEMENT3D(#268,#269,#270);
#272=IFCDIRECTION((0.,0.,1.));
#273=IFCEXTRUDEDAREASOLID(#266,#271,#272,0.34000000000000002);
#274=IFCSHAPEREPRESENTATION(#11,'Body','SweptSolid',(#273));
#275=IFCPRODUCTDEFINITIONSHAPE($,$,(#274));
#279=IFCCARTESIANPOINT((3.4400585228593319,-2.1198653263196938,0.25));
#280=IFCDIRECTION((0.,0.,1.));
#281=IFCDIRECTION((1.,0.,0.));
#282=IFCAXIS2PLACEMENT3D(#279,#280,#281);
#283=IFCLOCALPLACEMENT($,#282);
#284=IFCCIRCLEPROFILEDEF(.AREA.,$,$,0.033000000000000002);
#285=IFCFASTENER('2aOLbLYG1DOAPo4Ozmm9y0',$,'Mat Anchor Nut',$,$,#301,#293,$,$);
#286=IFCCARTESIANPOINT((0.,0.,0.));
#287=IFCDIRECTION((0.,0.,1.));
#288=IFCDIRECTION((1.,0.,0.));
#289=IFCAXIS2PLACEMENT3D(#286,#287,#288);
#290=IFCDIRECTION((0.,0.,1.));
#291=IFCEXTRUDEDAREASOLID(#284,#289,#290,0.029999999999999999);
#292=IFCSHAPEREPRESENTATION(#11,'Body','SweptSolid',(#291));
#293=IFCPRODUCTDEFINITIONSHAPE($,$,(#292));
#297=IFCCARTESIANPOINT((3.4400585228593319,-2.1198653263196938,0.60999999999999999));
#298=IFCDIRECTION((0.,0.,1.));
#299=IFCDIRECTION((1.,0.,0.));
#300=IFCAXIS2PLACEMENT3D(#297,#298,#299);
#301=IFCLOCALPLACEMENT($,#300);
#302=IFCCIRCLEPROFILEDEF(.AREA.,$,$,0.017999999999999999);
#303=IFCFASTENER('24lYVPBBPDa8wVl5Yoymxl',$,'Mat Anchor Bolt',$,$,#319,#311,$,$);
#304=IFCCARTESIANPOINT((0.,0.,0.));
#305=IFCDIRECTION((0.,0.,1.));
#306=IFCDIRECTION((1.,0.,0.));
#307=IFCAXIS2PLACEMENT3D(#304,#305,#306);
#308=IFCDIRECTION((0.,0.,1.));
#309=IFCEXTRUDEDAREASOLID(#302,#307,#308,0.34000000000000002);
#310=IFCSHAPEREPRESENTATION(#11,'Body','SweptSolid',(#309));
#311=IFCPRODUCTDEFINITIONSHAPE($,$,(#310));
#315=IFCCARTESIANPOINT((1.9090884521172564,-3.0632941508682245,0.25));
#316=IFCDIRECTION((0.,0.,1.));
#317=IFCDIRECTION((1.,0.,0.));
#318=IFCAXIS2PLACEMENT3D(#315,#316,#317);
#319=IFCLOCALPLACEMENT($,#318);
#320=IFCCIRCLEPROFILEDEF(.AREA.,$,$,0.033000000000000002);
#321=IFCFASTENER('0Sbc6ZnSH2heqPBr3T_akV',$,'Mat Anchor Nut',$,$,#337,#329,$,$);
#322=IFCCARTESIANPOINT((0.,0.,0.));
#323=IFCDIRECTION((0.,0.,1.));
#324=IFCDIRECTION((1.,0.,0.));
#325=IFCAXIS2PLACEMENT3D(#322,#323,#324);
#326=IFCDIRECTION((0.,0.,1.));
#327=IFCEXTRUDEDAREASOLID(#320,#325,#326,0.029999999999999999);
#328=IFCSHAPEREPRESENTATION(#11,'Body','SweptSolid',(#327));
#329=IFCPRODUCTDEFINITIONSHAPE($,$,(#328));
#333=IFCCARTESIANPOINT((1.9090884521172564,-3.0632941508682245,0.60999999999999999));
#334=IFCDIRECTION((0.,0.,1.));
#335=IFCDIRECTION((1.,0.,0.));
#336=IFCAXIS2PLACEMENT3D(#333,#334,#335);
#337=IFCLOCALPLACEMENT($,#336);
#338=IFCCIRCLEPROFILEDEF(.AREA.,$,$,0.017999999999999999);
#339=IFCFASTENER('3qiPIx65nCofxVpnM4bREs',$,'Mat Anchor Bolt',$,$,#355,#347,$,$);
#340=IFCCARTESIANPOINT((0.,0.,0.));
#341=IFCDIRECTION((0.,0.,1.));
#342=IFCDIRECTION((1.,0.,0.));
#343=IFCAXIS2PLACEMENT3D(#340,#341,#342);
#344=IFCDIRECTION((0.,0.,1.));
#345=IFCEXTRUDEDAREASOLID(#338,#343,#344,0.34000000000000002);
#346=IFCSHAPEREPRESENTATION(#11,'Body','SweptSolid',(#345));
#347=IFCPRODUCTDEFINITIONSHAPE($,$,(#346));
#351=IFCCARTESIANPOINT((5.388445916248355E-16,-3.3999999999999999,0.25));
#352=IFCDIRECTION((0.,0.,1.));
#353=IFCDIRECTION((1.,0.,0.));
#354=IFCAXIS2PLACEMENT3D(#351,#352,#353);
#355=IFCLOCALPLACEMENT($,#354);
#356=IFCCIRCLEPROFILEDEF(.AREA.,$,$,0.033000000000000002);
#357=IFCFASTENER('2yMm_IR855Sglb4axQWIl$',$,'Mat Anchor Nut',$,$,#373,#365,$,$);
#358=IFCCARTESIANPOINT((0.,0.,0.));
#359=IFCDIRECTION((0.,0.,1.));
#360=IFCDIRECTION((1.,0.,0.));
#361=IFCAXIS2PLACEMENT3D(#358,#359,#360);
#362=IFCDIRECTION((0.,0.,1.));
#363=IFCEXTRUDEDAREASOLID(#356,#361,#362,0.029999999999999999);
#364=IFCSHAPEREPRESENTATION(#11,'Body','SweptSolid',(#363));
#365=IFCPRODUCTDEFINITIONSHAPE($,$,(#364));
#369=IFCCARTESIANPOINT((5.388445916248355E-16,-3.3999999999999999,0.60999999999999999));
#370=IFCDIRECTION((0.,0.,1.));
#371=IFCDIRECTION((1.,0.,0.));
#372=IFCAXIS2PLACEMENT3D(#369,#370,#371);
#373=IFCLOCALPLACEMENT($,#372);
#374=IFCCIRCLEPROFILEDEF(.AREA.,$,$,0.017999999999999999);
#375=IFCFASTENER('3BP87ihuf9Ee6JvpMJTHQk',$,'Mat Anchor Bolt',$,$,#391,#383,$,$);
#376=IFCCARTESIANPOINT((0.,0.,0.));
#377=IFCDIRECTION((0.,0.,1.));
#378=IFCDIRECTION((1.,0.,0.));
#379=IFCAXIS2PLACEMENT3D(#376,#377,#378);
#380=IFCDIRECTION((0.,0.,1.));
#381=IFCEXTRUDEDAREASOLID(#374,#379,#380,0.34000000000000002);
#382=IFCSHAPEREPRESENTATION(#11,'Body','SweptSolid',(#381));
#383=IFCPRODUCTDEFINITIONSHAPE($,$,(#382));
#387=IFCCARTESIANPOINT((-1.9090884521172553,-3.063294150868225,0.25));
#388=IFCDIRECTION((0.,0.,1.));
#389=IFCDIRECTION((1.,0.,0.));
#390=IFCAXIS2PLACEMENT3D(#387,#388,#389);
#391=IFCLOCALPLACEMENT($,#390);
#392=IFCCIRCLEPROFILEDEF(.AREA.,$,$,0.033000000000000002);
#393=IFCFASTENER('2EsL6bnU17veb7XuQGmvCl',$,'Mat Anchor Nut',$,$,#409,#401,$,$);
#394=IFCCARTESIANPOINT((0.,0.,0.));
#395=IFCDIRECTION((0.,0.,1.));
#396=IFCDIRECTION((1.,0.,0.));
#397=IFCAXIS2PLACEMENT3D(#394,#395,#396);
#398=IFCDIRECTION((0.,0.,1.));
#399=IFCEXTRUDEDAREASOLID(#392,#397,#398,0.029999999999999999);
#400=IFCSHAPEREPRESENTATION(#11,'Body','SweptSolid',(#399));
#401=IFCPRODUCTDEFINITIONSHAPE($,$,(#400));
#405=IFCCARTESIANPOINT((-1.9090884521172553,-3.063294150868225,0.60999999999999999));
#406=IFCDIRECTION((0.,0.,1.));
#407=IFCDIRECTION((1.,0.,0.));
#408=IFCAXIS2PLACEMENT3D(#405,#406,#407);
#409=IFCLOCALPLACEMENT($,#408);
#410=IFCCIRCLEPROFILEDEF(.AREA.,$,$,0.017999999999999999);
#411=IFCFASTENER('3VV0ELHjf94P0MUAGz5m3s',$,'Mat Anchor Bolt',$,$,#427,#419,$,$);
#412=IFCCARTESIANPOINT((0.,0.,0.));
#413=IFCDIRECTION((0.,0.,1.));
#414=IFCDIRECTION((1.,0.,0.));
#415=IFCAXIS2PLACEMENT3D(#412,#413,#414);
#416=IFCDIRECTION((0.,0.,1.));
#417=IFCEXTRUDEDAREASOLID(#410,#415,#416,0.34000000000000002);
#418=IFCSHAPEREPRESENTATION(#11,'Body','SweptSolid',(#417));
#419=IFCPRODUCTDEFINITIONSHAPE($,$,(#418));
#423=IFCCARTESIANPOINT((-3.440058522859331,-2.1198653263196947,0.25));
#424=IFCDIRECTION((0.,0.,1.));
#425=IFCDIRECTION((1.,0.,0.));
#426=IFCAXIS2PLACEMENT3D(#423,#424,#425);
#427=IFCLOCALPLACEMENT($,#426);
#428=IFCCIRCLEPROFILEDEF(.AREA.,$,$,0.033000000000000002);
#429=IFCFASTENER('1wPBhYEof2FAoy24w5gPSs',$,'Mat Anchor Nut',$,$,#445,#437,$,$);
#430=IFCCARTESIANPOINT((0.,0.,0.));
#431=IFCDIRECTION((0.,0.,1.));
#432=IFCDIRECTION((1.,0.,0.));
#433=IFCAXIS2PLACEMENT3D(#430,#431,#432);
#434=IFCDIRECTION((0.,0.,1.));
#435=IFCEXTRUDEDAREASOLID(#428,#433,#434,0.029999999999999999);
#436=IFCSHAPEREPRESENTATION(#11,'Body','SweptSolid',(#435));
#437=IFCPRODUCTDEFINITIONSHAPE($,$,(#436));
#441=IFCCARTESIANPOINT((-3.440058522859331,-2.1198653263196947,0.60999999999999999));
#442=IFCDIRECTION((0.,0.,1.));
#443=IFCDIRECTION((1.,0.,0.));
#444=IFCAXIS2PLACEMENT3D(#441,#442,#443);
#445=IFCLOCALPLACEMENT($,#444);
#446=IFCCIRCLEPROFILEDEF(.AREA.,$,$,0.017999999999999999);
#447=IFCFASTENER('1uhrJanG17_hblqei0ljBY',$,'Mat Anchor Bolt',$,$,#463,#455,$,$);
#448=IFCCARTESIANPOINT((0.,0.,0.));
#449=IFCDIRECTION((0.,0.,1.));
#450=IFCDIRECTION((1.,0.,0.));
#451=IFCAXIS2PLACEMENT3D(#448,#449,#450);
#452=IFCDIRECTION((0.,0.,1.));
#453=IFCEXTRUDEDAREASOLID(#446,#451,#452,0.34000000000000002);
#454=IFCSHAPEREPRESENTATION(#11,'Body','SweptSolid',(#453));
#455=IFCPRODUCTDEFINITIONSHAPE($,$,(#454));
#459=IFCCARTESIANPOINT((-4.2896828136000247,-0.75657117545146957,0.25));
#460=IFCDIRECTION((0.,0.,1.));
#461=IFCDIRECTION((1.,0.,0.));
#462=IFCAXIS2PLACEMENT3D(#459,#460,#461);
#463=IFCLOCALPLACEMENT($,#462);
#464=IFCCIRCLEPROFILEDEF(.AREA.,$,$,0.033000000000000002);
#465=IFCFASTENER('08mGv_D9L3HvCEuo3U51W4',$,'Mat Anchor Nut',$,$,#481,#473,$,$);
#466=IFCCARTESIANPOINT((0.,0.,0.));
#467=IFCDIRECTION((0.,0.,1.));
#468=IFCDIRECTION((1.,0.,0.));
#469=IFCAXIS2PLACEMENT3D(#466,#467,#468);
#470=IFCDIRECTION((0.,0.,1.));
#471=IFCEXTRUDEDAREASOLID(#464,#469,#470,0.029999999999999999);
#472=IFCSHAPEREPRESENTATION(#11,'Body','SweptSolid',(#471));
#473=IFCPRODUCTDEFINITIONSHAPE($,$,(#472));
#477=IFCCARTESIANPOINT((-4.2896828136000247,-0.75657117545146957,0.60999999999999999));
#478=IFCDIRECTION((0.,0.,1.));
#479=IFCDIRECTION((1.,0.,0.));
#480=IFCAXIS2PLACEMENT3D(#477,#478,#479);
#481=IFCLOCALPLACEMENT($,#480);
#482=IFCCIRCLEPROFILEDEF(.AREA.,$,$,0.017999999999999999);
#483=IFCFASTENER('1mn76GnBf2XOK3ik3G0sNw',$,'Mat Anchor Bolt',$,$,#499,#491,$,$);
#484=IFCCARTESIANPOINT((0.,0.,0.));
#485=IFCDIRECTION((0.,0.,1.));
#486=IFCDIRECTION((1.,0.,0.));
#487=IFCAXIS2PLACEMENT3D(#484,#485,#486);
#488=IFCDIRECTION((0.,0.,1.));
#489=IFCEXTRUDEDAREASOLID(#482,#487,#488,0.34000000000000002);
#490=IFCSHAPEREPRESENTATION(#11,'Body','SweptSolid',(#489));
#491=IFCPRODUCTDEFINITIONSHAPE($,$,(#490));
#495=IFCCARTESIANPOINT((-4.2896828136000247,0.75657117545146835,0.25));
#496=IFCDIRECTION((0.,0.,1.));
#497=IFCDIRECTION((1.,0.,0.));
#498=IFCAXIS2PLACEMENT3D(#495,#496,#497);
#499=IFCLOCALPLACEMENT($,#498);
#500=IFCCIRCLEPROFILEDEF(.AREA.,$,$,0.033000000000000002);
#501=IFCFASTENER('1bg2UjZ7j7CeOALU_ZhZTh',$,'Mat Anchor Nut',$,$,#517,#509,$,$);
#502=IFCCARTESIANPOINT((0.,0.,0.));
#503=IFCDIRECTION((0.,0.,1.));
#504=IFCDIRECTION((1.,0.,0.));
#505=IFCAXIS2PLACEMENT3D(#502,#503,#504);
#506=IFCDIRECTION((0.,0.,1.));
#507=IFCEXTRUDEDAREASOLID(#500,#505,#506,0.029999999999999999);
#508=IFCSHAPEREPRESENTATION(#11,'Body','SweptSolid',(#507));
#509=IFCPRODUCTDEFINITIONSHAPE($,$,(#508));
#513=IFCCARTESIANPOINT((-4.2896828136000247,0.75657117545146835,0.60999999999999999));
#514=IFCDIRECTION((0.,0.,1.));
#515=IFCDIRECTION((1.,0.,0.));
#516=IFCAXIS2PLACEMENT3D(#513,#514,#515);
#517=IFCLOCALPLACEMENT($,#516);
#518=IFCCIRCLEPROFILEDEF(.AREA.,$,$,0.017999999999999999);
#519=IFCFASTENER('0SgAWvmDb5rv2ecYQNUoPT',$,'Mat Anchor Bolt',$,$,#535,#527,$,$);
#520=IFCCARTESIANPOINT((0.,0.,0.));
#521=IFCDIRECTION((0.,0.,1.));
#522=IFCDIRECTION((1.,0.,0.));
#523=IFCAXIS2PLACEMENT3D(#520,#521,#522);
#524=IFCDIRECTION((0.,0.,1.));
#525=IFCEXTRUDEDAREASOLID(#518,#523,#524,0.34000000000000002);
#526=IFCSHAPEREPRESENTATION(#11,'Body','SweptSolid',(#525));
#527=IFCPRODUCTDEFINITIONSHAPE($,$,(#526));
#531=IFCCARTESIANPOINT((-3.4400585228593319,2.1198653263196934,0.25));
#532=IFCDIRECTION((0.,0.,1.));
#533=IFCDIRECTION((1.,0.,0.));
#534=IFCAXIS2PLACEMENT3D(#531,#532,#533);
#535=IFCLOCALPLACEMENT($,#534);
#536=IFCCIRCLEPROFILEDEF(.AREA.,$,$,0.033000000000000002);
#537=IFCFASTENER('3faYSwRl92KeFnXLSGXcLO',$,'Mat Anchor Nut',$,$,#553,#545,$,$);
#538=IFCCARTESIANPOINT((0.,0.,0.));
#539=IFCDIRECTION((0.,0.,1.));
#540=IFCDIRECTION((1.,0.,0.));
#541=IFCAXIS2PLACEMENT3D(#538,#539,#540);
#542=IFCDIRECTION((0.,0.,1.));
#543=IFCEXTRUDEDAREASOLID(#536,#541,#542,0.029999999999999999);
#544=IFCSHAPEREPRESENTATION(#11,'Body','SweptSolid',(#543));
#545=IFCPRODUCTDEFINITIONSHAPE($,$,(#544));
#549=IFCCARTESIANPOINT((-3.4400585228593319,2.1198653263196934,0.60999999999999999));
#550=IFCDIRECTION((0.,0.,1.));
#551=IFCDIRECTION((1.,0.,0.));
#552=IFCAXIS2PLACEMENT3D(#549,#550,#551);
#553=IFCLOCALPLACEMENT($,#552);
#554=IFCCIRCLEPROFILEDEF(.AREA.,$,$,0.017999999999999999);
#555=IFCFASTENER('1kr_RHEYH7k8NPPV8CyYI9',$,'Mat Anchor Bolt',$,$,#571,#563,$,$);
#556=IFCCARTESIANPOINT((0.,0.,0.));
#557=IFCDIRECTION((0.,0.,1.));
#558=IFCDIRECTION((1.,0.,0.));
#559=IFCAXIS2PLACEMENT3D(#556,#557,#558);
#560=IFCDIRECTION((0.,0.,1.));
#561=IFCEXTRUDEDAREASOLID(#554,#559,#560,0.34000000000000002);
#562=IFCSHAPEREPRESENTATION(#11,'Body','SweptSolid',(#561));
#563=IFCPRODUCTDEFINITIONSHAPE($,$,(#562));
#567=IFCCARTESIANPOINT((-1.9090884521172569,3.0632941508682245,0.25));
#568=IFCDIRECTION((0.,0.,1.));
#569=IFCDIRECTION((1.,0.,0.));
#570=IFCAXIS2PLACEMENT3D(#567,#568,#569);
#571=IFCLOCALPLACEMENT($,#570);
#572=IFCCIRCLEPROFILEDEF(.AREA.,$,$,0.033000000000000002);
#573=IFCFASTENER('0UnPksXp919uCfH2Se8yqo',$,'Mat Anchor Nut',$,$,#589,#581,$,$);
#574=IFCCARTESIANPOINT((0.,0.,0.));
#575=IFCDIRECTION((0.,0.,1.));
#576=IFCDIRECTION((1.,0.,0.));
#577=IFCAXIS2PLACEMENT3D(#574,#575,#576);
#578=IFCDIRECTION((0.,0.,1.));
#579=IFCEXTRUDEDAREASOLID(#572,#577,#578,0.029999999999999999);
#580=IFCSHAPEREPRESENTATION(#11,'Body','SweptSolid',(#579));
#581=IFCPRODUCTDEFINITIONSHAPE($,$,(#580));
#585=IFCCARTESIANPOINT((-1.9090884521172569,3.0632941508682245,0.60999999999999999));
#586=IFCDIRECTION((0.,0.,1.));
#587=IFCDIRECTION((1.,0.,0.));
#588=IFCAXIS2PLACEMENT3D(#585,#586,#587);
#589=IFCLOCALPLACEMENT($,#588);
#590=IFCCIRCLEPROFILEDEF(.AREA.,$,$,0.02);
#591=IFCREINFORCINGBAR('1pxSathfX3YveqGulvRVOd',$,'Mat Rebar Stub',$,$,#608,#599,$,$,$,$,$,$,$);
#592=IFCCARTESIANPOINT((0.,0.,0.));
#593=IFCDIRECTION((0.,0.,1.));
#594=IFCDIRECTION((1.,0.,0.));
#595=IFCAXIS2PLACEMENT3D(#592,#593,#594);
#596=IFCDIRECTION((0.,0.,1.));
#597=IFCEXTRUDEDAREASOLID(#590,#595,#596,0.5);
#598=IFCSHAPEREPRESENTATION(#11,'Body','SweptSolid',(#597));
#599=IFCPRODUCTDEFINITIONSHAPE($,$,(#598));
#603=IFCRELASSOCIATESMATERIAL('2m5OjGQ313Lug9H0tSIOyp',$,$,$,(#972,#1062,#591,#1080,#610,#864,#810,#756,#646,#954,#900,#846,#792,#628,#882,#1044,#990,#936,#1026,#774),#56);
#604=IFCCARTESIANPOINT((-3.,-2.,0.25));
#605=IFCDIRECTION((0.,0.,1.));
#606=IFCDIRECTION((1.,0.,0.));
#607=IFCAXIS2PLACEMENT3D(#604,#605,#606);
#608=IFCLOCALPLACEMENT($,#607);
#609=IFCCIRCLEPROFILEDEF(.AREA.,$,$,0.02);
#610=IFCREINFORCINGBAR('1NDqXbFpj3U80e6R28zh_I',$,'Mat Rebar Stub',$,$,#626,#618,$,$,$,$,$,$,$);
#611=IFCCARTESIANPOINT((0.,0.,0.));
#612=IFCDIRECTION((0.,0.,1.));
#613=IFCDIRECTION((1.,0.,0.));
#614=IFCAXIS2PLACEMENT3D(#611,#612,#613);
#615=IFCDIRECTION((0.,0.,1.));
#616=IFCEXTRUDEDAREASOLID(#609,#614,#615,0.5);
#617=IFCSHAPEREPRESENTATION(#11,'Body','SweptSolid',(#616));
#618=IFCPRODUCTDEFINITIONSHAPE($,$,(#617));
#622=IFCCARTESIANPOINT((3.,2.,0.25));
#623=IFCDIRECTION((0.,0.,1.));
#624=IFCDIRECTION((1.,0.,0.));
#625=IFCAXIS2PLACEMENT3D(#622,#623,#624);
#626=IFCLOCALPLACEMENT($,#625);
#627=IFCCIRCLEPROFILEDEF(.AREA.,$,$,0.02);
#628=IFCREINFORCINGBAR('2jYqBn_hX5Xg1jPOeCRY_e',$,'Mat Rebar Stub',$,$,#644,#636,$,$,$,$,$,$,$);
#629=IFCCARTESIANPOINT((0.,0.,0.));
#630=IFCDIRECTION((0.,0.,1.));
#631=IFCDIRECTION((1.,0.,0.));
#632=IFCAXIS2PLACEMENT3D(#629,#630,#631);
#633=IFCDIRECTION((0.,0.,1.));
#634=IFCEXTRUDEDAREASOLID(#627,#632,#633,0.5);
#635=IFCSHAPEREPRESENTATION(#11,'Body','SweptSolid',(#634));
#636=IFCPRODUCTDEFINITIONSHAPE($,$,(#635));
#640=IFCCARTESIANPOINT((0.,-2.3999999999999999,0.25));
#641=IFCDIRECTION((0.,0.,1.));
#642=IFCDIRECTION((1.,0.,0.));
#643=IFCAXIS2PLACEMENT3D(#640,#641,#642);
#644=IFCLOCALPLACEMENT($,#643);
#645=IFCCIRCLEPROFILEDEF(.AREA.,$,$,0.02);
#646=IFCREINFORCINGBAR('39MnO3RP126xWf1DL2AclM',$,'Mat Rebar Stub',$,$,#662,#654,$,$,$,$,$,$,$);
#647=IFCCARTESIANPOINT((0.,0.,0.));
#648=IFCDIRECTION((0.,0.,1.));
#649=IFCDIRECTION((1.,0.,0.));
#650=IFCAXIS2PLACEMENT3D(#647,#648,#649);
#651=IFCDIRECTION((0.,0.,1.));
#652=IFCEXTRUDEDAREASOLID(#645,#650,#651,0.5);
#653=IFCSHAPEREPRESENTATION(#11,'Body','SweptSolid',(#652));
#654=IFCPRODUCTDEFINITIONSHAPE($,$,(#653));
#658=IFCCARTESIANPOINT((0.,2.3999999999999999,0.25));
#659=IFCDIRECTION((0.,0.,1.));
#660=IFCDIRECTION((1.,0.,0.));
#661=IFCAXIS2PLACEMENT3D(#658,#659,#660);
#662=IFCLOCALPLACEMENT($,#661);
#663=IFCRECTANGLEPROFILEDEF(.AREA.,$,$,1.2,1.2);
#664=IFCFOOTING('0WK8o1qwf1n9fNQ1p5paUq',$,'Footing',$,$,#681,#672,$,$);
#665=IFCCARTESIANPOINT((0.,0.,0.));
#666=IFCDIRECTION((0.,0.,1.));
#667=IFCDIRECTION((1.,0.,0.));
#668=IFCAXIS2PLACEMENT3D(#665,#666,#667);
#669=IFCDIRECTION((0.,0.,1.));
#670=IFCEXTRUDEDAREASOLID(#663,#668,#669,0.5);
#671=IFCSHAPEREPRESENTATION(#11,'Body','SweptSolid',(#670));
#672=IFCPRODUCTDEFINITIONSHAPE($,$,(#671));
#676=IFCRELASSOCIATESMATERIAL('0zwtur7u58Se42KHdgcUUj',$,$,$,(#719,#701,#683,#664),#21);
#677=IFCCARTESIANPOINT((-3.2000000000000002,-2.2000000000000002,0.));
#678=IFCDIRECTION((0.,0.,1.));
#679=IFCDIRECTION((1.,0.,0.));
#680=IFCAXIS2PLACEMENT3D(#677,#678,#679);
#681=IFCLOCALPLACEMENT($,#680);
#682=IFCRECTANGLEPROFILEDEF(.AREA.,$,$,1.2,1.2);
#683=IFCFOOTING('39FUs2KyrAq9r$nuABstT7',$,'Footing',$,$,#699,#691,$,$);
#684=IFCCARTESIANPOINT((0.,0.,0.));
#685=IFCDIRECTION((0.,0.,1.));
#686=IFCDIRECTION((1.,0.,0.));
#687=IFCAXIS2PLACEMENT3D(#684,#685,#686);
#688=IFCDIRECTION((0.,0.,1.));
#689=IFCEXTRUDEDAREASOLID(#682,#687,#688,0.5);
#690=IFCSHAPEREPRESENTATION(#11,'Body','SweptSolid',(#689));
#691=IFCPRODUCTDEFINITIONSHAPE($,$,(#690));
#695=IFCCARTESIANPOINT((3.2000000000000002,-2.2000000000000002,0.));
#696=IFCDIRECTION((0.,0.,1.));
#697=IFCDIRECTION((1.,0.,0.));
#698=IFCAXIS2PLACEMENT3D(#695,#696,#697);
#699=IFCLOCALPLACEMENT($,#698);
#700=IFCRECTANGLEPROFILEDEF(.AREA.,$,$,1.2,1.2);
#701=IFCFOOTING('3BWvc7Ft5F5AUclcMxsQIT',$,'Footing',$,$,#717,#709,$,$);
#702=IFCCARTESIANPOINT((0.,0.,0.));
#703=IFCDIRECTION((0.,0.,1.));
#704=IFCDIRECTION((1.,0.,0.));
#705=IFCAXIS2PLACEMENT3D(#702,#703,#704);
#706=IFCDIRECTION((0.,0.,1.));
#707=IFCEXTRUDEDAREASOLID(#700,#705,#706,0.5);
#708=IFCSHAPEREPRESENTATION(#11,'Body','SweptSolid',(#707));
#709=IFCPRODUCTDEFINITIONSHAPE($,$,(#708));
#713=IFCCARTESIANPOINT((-3.2000000000000002,2.2000000000000002,0.));
#714=IFCDIRECTION((0.,0.,1.));
#715=IFCDIRECTION((1.,0.,0.));
#716=IFCAXIS2PLACEMENT3D(#713,#714,#715);
#717=IFCLOCALPLACEMENT($,#716);
#718=IFCRECTANGLEPROFILEDEF(.AREA.,$,$,1.2,1.2);
#719=IFCFOOTING('24_Ecm8wD0VwdNAIx6NgJ0',$,'Footing',$,$,#735,#727,$,$);
#720=IFCCARTESIANPOINT((0.,0.,0.));
#721=IFCDIRECTION((0.,0.,1.));
#722=IFCDIRECTION((1.,0.,0.));
#723=IFCAXIS2PLACEMENT3D(#720,#721,#722);
#724=IFCDIRECTION((0.,0.,1.));
#725=IFCEXTRUDEDAREASOLID(#718,#723,#724,0.5);
#726=IFCSHAPEREPRESENTATION(#11,'Body','SweptSolid',(#725));
#727=IFCPRODUCTDEFINITIONSHAPE($,$,(#726));
#731=IFCCARTESIANPOINT((3.2000000000000002,2.2000000000000002,0.));
#732=IFCDIRECTION((0.,0.,1.));
#733=IFCDIRECTION((1.,0.,0.));
#734=IFCAXIS2PLACEMENT3D(#731,#732,#733);
#735=IFCLOCALPLACEMENT($,#734);
#736=IFCRECTANGLEPROFILEDEF(.AREA.,$,$,0.40000000000000002,0.40000000000000002);
#737=IFCCOLUMN('1B0859a297$xwNIigJplQY',$,'Column',$,$,#754,#745,$,$);
#738=IFCCARTESIANPOINT((0.,0.,0.));
#739=IFCDIRECTION((0.,0.,1.));
#740=IFCDIRECTION((1.,0.,0.));
#741=IFCAXIS2PLACEMENT3D(#738,#739,#740);
#742=IFCDIRECTION((0.,0.,1.));
#743=IFCEXTRUDEDAREASOLID(#736,#741,#742,3.);
#744=IFCSHAPEREPRESENTATION(#11,'Body','SweptSolid',(#743));
#745=IFCPRODUCTDEFINITIONSHAPE($,$,(#744));
#749=IFCRELASSOCIATESMATERIAL('2SlefWG0P4X9AED0tw$GA5',$,$,$,(#1008,#828,#918,#737),#42);
#750=IFCCARTESIANPOINT((-3.2000000000000002,-2.2000000000000002,0.5));
#751=IFCDIRECTION((0.,0.,1.));
#752=IFCDIRECTION((1.,0.,0.));
#753=IFCAXIS2PLACEMENT3D(#750,#751,#752);
#754=IFCLOCALPLACEMENT($,#753);
#755=IFCCIRCLEPROFILEDEF(.AREA.,$,$,0.012);
#756=IFCREINFORCINGBAR('3v0MBBivHC8vBnDLGkGUzO',$,'Column Dowel',$,$,#772,#764,$,$,$,$,$,$,$);
#757=IFCCARTESIANPOINT((0.,0.,0.));
#758=IFCDIRECTION((0.,0.,1.));
#759=IFCDIRECTION((1.,0.,0.));
#760=IFCAXIS2PLACEMENT3D(#757,#758,#759);
#761=IFCDIRECTION((0.,0.,1.));
#762=IFCEXTRUDEDAREASOLID(#755,#760,#761,0.12);
#763=IFCSHAPEREPRESENTATION(#11,'Body','SweptSolid',(#762));
#764=IFCPRODUCTDEFINITIONSHAPE($,$,(#763));
#768=IFCCARTESIANPOINT((-3.3500000000000001,-2.3500000000000001,3.5));
#769=IFCDIRECTION((0.,0.,1.));
#770=IFCDIRECTION((1.,0.,0.));
#771=IFCAXIS2PLACEMENT3D(#768,#769,#770);
#772=IFCLOCALPLACEMENT($,#771);
#773=IFCCIRCLEPROFILEDEF(.AREA.,$,$,0.012);
#774=IFCREINFORCINGBAR('1s1_IcRjH0Xw1GOCDAUfYF',$,'Column Dowel',$,$,#790,#782,$,$,$,$,$,$,$);
#775=IFCCARTESIANPOINT((0.,0.,0.));
#776=IFCDIRECTION((0.,0.,1.));
#777=IFCDIRECTION((1.,0.,0.));
#778=IFCAXIS2PLACEMENT3D(#775,#776,#777);
#779=IFCDIRECTION((0.,0.,1.));
#780=IFCEXTRUDEDAREASOLID(#773,#778,#779,0.12);
#781=IFCSHAPEREPRESENTATION(#11,'Body','SweptSolid',(#780));
#782=IFCPRODUCTDEFINITIONSHAPE($,$,(#781));
#786=IFCCARTESIANPOINT((-3.0500000000000003,-2.3500000000000001,3.5));
#787=IFCDIRECTION((0.,0.,1.));
#788=IFCDIRECTION((1.,0.,0.));
#789=IFCAXIS2PLACEMENT3D(#786,#787,#788);
#790=IFCLOCALPLACEMENT($,#789);
#791=IFCCIRCLEPROFILEDEF(.AREA.,$,$,0.012);
#792=IFCREINFORCINGBAR('2dL8BkfB9EfQ0a2C$NQAuj',$,'Column Dowel',$,$,#808,#800,$,$,$,$,$,$,$);
#793=IFCCARTESIANPOINT((0.,0.,0.));
#794=IFCDIRECTION((0.,0.,1.));
#795=IFCDIRECTION((1.,0.,0.));
#796=IFCAXIS2PLACEMENT3D(#793,#794,#795);
#797=IFCDIRECTION((0.,0.,1.));
#798=IFCEXTRUDEDAREASOLID(#791,#796,#797,0.12);
#799=IFCSHAPEREPRESENTATION(#11,'Body','SweptSolid',(#798));
#800=IFCPRODUCTDEFINITIONSHAPE($,$,(#799));
#804=IFCCARTESIANPOINT((-3.3500000000000001,-2.0500000000000003,3.5));
#805=IFCDIRECTION((0.,0.,1.));
#806=IFCDIRECTION((1.,0.,0.));
#807=IFCAXIS2PLACEMENT3D(#804,#805,#806);
#808=IFCLOCALPLACEMENT($,#807);
#809=IFCCIRCLEPROFILEDEF(.AREA.,$,$,0.012);
#810=IFCREINFORCINGBAR('1vxnnRPkbCsOATUd6ovA4P',$,'Column Dowel',$,$,#826,#818,$,$,$,$,$,$,$);
#811=IFCCARTESIANPOINT((0.,0.,0.));
#812=IFCDIRECTION((0.,0.,1.));
#813=IFCDIRECTION((1.,0.,0.));
#814=IFCAXIS2PLACEMENT3D(#811,#812,#813);
#815=IFCDIRECTION((0.,0.,1.));
#816=IFCEXTRUDEDAREASOLID(#809,#814,#815,0.12);
#817=IFCSHAPEREPRESENTATION(#11,'Body','SweptSolid',(#816));
#818=IFCPRODUCTDEFINITIONSHAPE($,$,(#817));
#822=IFCCARTESIANPOINT((-3.0500000000000003,-2.0500000000000003,3.5));
#823=IFCDIRECTION((0.,0.,1.));
#824=IFCDIRECTION((1.,0.,0.));
#825=IFCAXIS2PLACEMENT3D(#822,#823,#824);
#826=IFCLOCALPLACEMENT($,#825);
#827=IFCRECTANGLEPROFILEDEF(.AREA.,$,$,0.40000000000000002,0.40000000000000002);
#828=IFCCOLUMN('0gzmjtFMvDB8_oy5n30alw',$,'Column',$,$,#844,#836,$,$);
#829=IFCCARTESIANPOINT((0.,0.,0.));
#830=IFCDIRECTION((0.,0.,1.));
#831=IFCDIRECTION((1.,0.,0.));
#832=IFCAXIS2PLACEMENT3D(#829,#830,#831);
#833=IFCDIRECTION((0.,0.,1.));
#834=IFCEXTRUDEDAREASOLID(#827,#832,#833,3.);
#835=IFCSHAPEREPRESENTATION(#11,'Body','SweptSolid',(#834));
#836=IFCPRODUCTDEFINITIONSHAPE($,$,(#835));
#840=IFCCARTESIANPOINT((3.2000000000000002,-2.2000000000000002,0.5));
#841=IFCDIRECTION((0.,0.,1.));
#842=IFCDIRECTION((1.,0.,0.));
#843=IFCAXIS2PLACEMENT3D(#840,#841,#842);
#844=IFCLOCALPLACEMENT($,#843);
#845=IFCCIRCLEPROFILEDEF(.AREA.,$,$,0.012);
#846=IFCREINFORCINGBAR('3TYXJ07ZfFfwRYRuW$BgF_',$,'Column Dowel',$,$,#862,#854,$,$,$,$,$,$,$);
#847=IFCCARTESIANPOINT((0.,0.,0.));
#848=IFCDIRECTION((0.,0.,1.));
#849=IFCDIRECTION((1.,0.,0.));
#850=IFCAXIS2PLACEMENT3D(#847,#848,#849);
#851=IFCDIRECTION((0.,0.,1.));
#852=IFCEXTRUDEDAREASOLID(#845,#850,#851,0.12);
#853=IFCSHAPEREPRESENTATION(#11,'Body','SweptSolid',(#852));
#854=IFCPRODUCTDEFINITIONSHAPE($,$,(#853));
#858=IFCCARTESIANPOINT((3.0500000000000003,-2.3500000000000001,3.5));
#859=IFCDIRECTION((0.,0.,1.));
#860=IFCDIRECTION((1.,0.,0.));
#861=IFCAXIS2PLACEMENT3D(#858,#859,#860);
#862=IFCLOCALPLACEMENT($,#861);
#863=IFCCIRCLEPROFILEDEF(.AREA.,$,$,0.012);
#864=IFCREINFORCINGBAR('0WplGkGRzB99JcYkobtvel',$,'Column Dowel',$,$,#880,#872,$,$,$,$,$,$,$);
#865=IFCCARTESIANPOINT((0.,0.,0.));
#866=IFCDIRECTION((0.,0.,1.));
#867=IFCDIRECTION((1.,0.,0.));
#868=IFCAXIS2PLACEMENT3D(#865,#866,#867);
#869=IFCDIRECTION((0.,0.,1.));
#870=IFCEXTRUDEDAREASOLID(#863,#868,#869,0.12);
#871=IFCSHAPEREPRESENTATION(#11,'Body','SweptSolid',(#870));
#872=IFCPRODUCTDEFINITIONSHAPE($,$,(#871));
#876=IFCCARTESIANPOINT((3.3500000000000001,-2.3500000000000001,3.5));
#877=IFCDIRECTION((0.,0.,1.));
#878=IFCDIRECTION((1.,0.,0.));
#879=IFCAXIS2PLACEMENT3D(#876,#877,#878);
#880=IFCLOCALPLACEMENT($,#879);
#881=IFCCIRCLEPROFILEDEF(.AREA.,$,$,0.012);
#882=IFCREINFORCINGBAR('0DmKWU09zCZxqFL$oD_N12',$,'Column Dowel',$,$,#898,#890,$,$,$,$,$,$,$);
#883=IFCCARTESIANPOINT((0.,0.,0.));
#884=IFCDIRECTION((0.,0.,1.));
#885=IFCDIRECTION((1.,0.,0.));
#886=IFCAXIS2PLACEMENT3D(#883,#884,#885);
#887=IFCDIRECTION((0.,0.,1.));
#888=IFCEXTRUDEDAREASOLID(#881,#886,#887,0.12);
#889=IFCSHAPEREPRESENTATION(#11,'Body','SweptSolid',(#888));
#890=IFCPRODUCTDEFINITIONSHAPE($,$,(#889));
#894=IFCCARTESIANPOINT((3.0500000000000003,-2.0500000000000003,3.5));
#895=IFCDIRECTION((0.,0.,1.));
#896=IFCDIRECTION((1.,0.,0.));
#897=IFCAXIS2PLACEMENT3D(#894,#895,#896);
#898=IFCLOCALPLACEMENT($,#897);
#899=IFCCIRCLEPROFILEDEF(.AREA.,$,$,0.012);
#900=IFCREINFORCINGBAR('3qaLjQQmD9Bxz9B6sMF4pU',$,'Column Dowel',$,$,#916,#908,$,$,$,$,$,$,$);
#901=IFCCARTESIANPOINT((0.,0.,0.));
#902=IFCDIRECTION((0.,0.,1.));
#903=IFCDIRECTION((1.,0.,0.));
#904=IFCAXIS2PLACEMENT3D(#901,#902,#903);
#905=IFCDIRECTION((0.,0.,1.));
#906=IFCEXTRUDEDAREASOLID(#899,#904,#905,0.12);
#907=IFCSHAPEREPRESENTATION(#11,'Body','SweptSolid',(#906));
#908=IFCPRODUCTDEFINITIONSHAPE($,$,(#907));
#912=IFCCARTESIANPOINT((3.3500000000000001,-2.0500000000000003,3.5));
#913=IFCDIRECTION((0.,0.,1.));
#914=IFCDIRECTION((1.,0.,0.));
#915=IFCAXIS2PLACEMENT3D(#912,#913,#914);
#916=IFCLOCALPLACEMENT($,#915);
#917=IFCRECTANGLEPROFILEDEF(.AREA.,$,$,0.40000000000000002,0.40000000000000002);
#918=IFCCOLUMN('3x268NzFTAtBsM6GboMIoc',$,'Column',$,$,#934,#926,$,$);
#919=IFCCARTESIANPOINT((0.,0.,0.));
#920=IFCDIRECTION((0.,0.,1.));
#921=IFCDIRECTION((1.,0.,0.));
#922=IFCAXIS2PLACEMENT3D(#919,#920,#921);
#923=IFCDIRECTION((0.,0.,1.));
#924=IFCEXTRUDEDAREASOLID(#917,#922,#923,3.);
#925=IFCSHAPEREPRESENTATION(#11,'Body','SweptSolid',(#924));
#926=IFCPRODUCTDEFINITIONSHAPE($,$,(#925));
#930=IFCCARTESIANPOINT((-3.2000000000000002,2.2000000000000002,0.5));
#931=IFCDIRECTION((0.,0.,1.));
#932=IFCDIRECTION((1.,0.,0.));
#933=IFCAXIS2PLACEMENT3D(#930,#931,#932);
#934=IFCLOCALPLACEMENT($,#933);
#935=IFCCIRCLEPROFILEDEF(.AREA.,$,$,0.012);
#936=IFCREINFORCINGBAR('3AsOkdnYb6yuNbOdaSroRv',$,'Column Dowel',$,$,#952,#944,$,$,$,$,$,$,$);
#937=IFCCARTESIANPOINT((0.,0.,0.));
#938=IFCDIRECTION((0.,0.,1.));
#939=IFCDIRECTION((1.,0.,0.));
#940=IFCAXIS2PLACEMENT3D(#937,#938,#939);
#941=IFCDIRECTION((0.,0.,1.));
#942=IFCEXTRUDEDAREASOLID(#935,#940,#941,0.12);
#943=IFCSHAPEREPRESENTATION(#11,'Body','SweptSolid',(#942));
#944=IFCPRODUCTDEFINITIONSHAPE($,$,(#943));
#948=IFCCARTESIANPOINT((-3.3500000000000001,2.0500000000000003,3.5));
#949=IFCDIRECTION((0.,0.,1.));
#950=IFCDIRECTION((1.,0.,0.));
#951=IFCAXIS2PLACEMENT3D(#948,#949,#950);
#952=IFCLOCALPLACEMENT($,#951);
#953=IFCCIRCLEPROFILEDEF(.AREA.,$,$,0.012);
#954=IFCREINFORCINGBAR('0nm6TrRdrCRuwCevjkydzO',$,'Column Dowel',$,$,#970,#962,$,$,$,$,$,$,$);
#955=IFCCARTESIANPOINT((0.,0.,0.));
#956=IFCDIRECTION((0.,0.,1.));
#957=IFCDIRECTION((1.,0.,0.));
#958=IFCAXIS2PLACEMENT3D(#955,#956,#957);
#959=IFCDIRECTION((0.,0.,1.));
#960=IFCEXTRUDEDAREASOLID(#953,#958,#959,0.12);
#961=IFCSHAPEREPRESENTATION(#11,'Body','SweptSolid',(#960));
#962=IFCPRODUCTDEFINITIONSHAPE($,$,(#961));
#966=IFCCARTESIANPOINT((-3.0500000000000003,2.0500000000000003,3.5));
#967=IFCDIRECTION((0.,0.,1.));
#968=IFCDIRECTION((1.,0.,0.));
#969=IFCAXIS2PLACEMENT3D(#966,#967,#968);
#970=IFCLOCALPLACEMENT($,#969);
#971=IFCCIRCLEPROFILEDEF(.AREA.,$,$,0.012);
#972=IFCREINFORCINGBAR('2d_GKS5LH9bwsz67OXI7Mi',$,'Column Dowel',$,$,#988,#980,$,$,$,$,$,$,$);
#973=IFCCARTESIANPOINT((0.,0.,0.));
#974=IFCDIRECTION((0.,0.,1.));
#975=IFCDIRECTION((1.,0.,0.));
#976=IFCAXIS2PLACEMENT3D(#973,#974,#975);
#977=IFCDIRECTION((0.,0.,1.));
#978=IFCEXTRUDEDAREASOLID(#971,#976,#977,0.12);
#979=IFCSHAPEREPRESENTATION(#11,'Body','SweptSolid',(#978));
#980=IFCPRODUCTDEFINITIONSHAPE($,$,(#979));
#984=IFCCARTESIANPOINT((-3.3500000000000001,2.3500000000000001,3.5));
#985=IFCDIRECTION((0.,0.,1.));
#986=IFCDIRECTION((1.,0.,0.));
#987=IFCAXIS2PLACEMENT3D(#984,#985,#986);
#988=IFCLOCALPLACEMENT($,#987);
#989=IFCCIRCLEPROFILEDEF(.AREA.,$,$,0.012);
#990=IFCREINFORCINGBAR('3Zev5MfzPA4v8HWYqbN79O',$,'Column Dowel',$,$,#1006,#998,$,$,$,$,$,$,$);
#991=IFCCARTESIANPOINT((0.,0.,0.));
#992=IFCDIRECTION((0.,0.,1.));
#993=IFCDIRECTION((1.,0.,0.));
#994=IFCAXIS2PLACEMENT3D(#991,#992,#993);
#995=IFCDIRECTION((0.,0.,1.));
#996=IFCEXTRUDEDAREASOLID(#989,#994,#995,0.12);
#997=IFCSHAPEREPRESENTATION(#11,'Body','SweptSolid',(#996));
#998=IFCPRODUCTDEFINITIONSHAPE($,$,(#997));
#1002=IFCCARTESIANPOINT((-3.0500000000000003,2.3500000000000001,3.5));
#1003=IFCDIRECTION((0.,0.,1.));
#1004=IFCDIRECTION((1.,0.,0.));
#1005=IFCAXIS2PLACEMENT3D(#1002,#1003,#1004);
#1006=IFCLOCALPLACEMENT($,#1005);
#1007=IFCRECTANGLEPROFILEDEF(.AREA.,$,$,0.40000000000000002,0.40000000000000002);
#1008=IFCCOLUMN('10i9WwGWvDNh$fRZCvZSq6',$,'Column',$,$,#1024,#1016,$,$);
#1009=IFCCARTESIANPOINT((0.,0.,0.));
#1010=IFCDIRECTION((0.,0.,1.));
#1011=IFCDIRECTION((1.,0.,0.));
#1012=IFCAXIS2PLACEMENT3D(#1009,#1010,#1011);
#1013=IFCDIRECTION((0.,0.,1.));
#1014=IFCEXTRUDEDAREASOLID(#1007,#1012,#1013,3.);
#1015=IFCSHAPEREPRESENTATION(#11,'Body','SweptSolid',(#1014));
#1016=IFCPRODUCTDEFINITIONSHAPE($,$,(#1015));
#1020=IFCCARTESIANPOINT((3.2000000000000002,2.2000000000000002,0.5));
#1021=IFCDIRECTION((0.,0.,1.));
#1022=IFCDIRECTION((1.,0.,0.));
#1023=IFCAXIS2PLACEMENT3D(#1020,#1021,#1022);
#1024=IFCLOCALPLACEMENT($,#1023);
#1025=IFCCIRCLEPROFILEDEF(.AREA.,$,$,0.012);
#1026=IFCREINFORCINGBAR('0_syuHojD1duo0Oj4qcgnt',$,'Column Dowel',$,$,#1042,#1034,$,$,$,$,$,$,$);
#1027=IFCCARTESIANPOINT((0.,0.,0.));
#1028=IFCDIRECTION((0.,0.,1.));
#1029=IFCDIRECTION((1.,0.,0.));
#1030=IFCAXIS2PLACEMENT3D(#1027,#1028,#1029);
#1031=IFCDIRECTION((0.,0.,1.));
#1032=IFCEXTRUDEDAREASOLID(#1025,#1030,#1031,0.12);
#1033=IFCSHAPEREPRESENTATION(#11,'Body','SweptSolid',(#1032));
#1034=IFCPRODUCTDEFINITIONSHAPE($,$,(#1033));
#1038=IFCCARTESIANPOINT((3.0500000000000003,2.0500000000000003,3.5));
#1039=IFCDIRECTION((0.,0.,1.));
#1040=IFCDIRECTION((1.,0.,0.));
#1041=IFCAXIS2PLACEMENT3D(#1038,#1039,#1040);
#1042=IFCLOCALPLACEMENT($,#1041);
#1043=IFCCIRCLEPROFILEDEF(.AREA.,$,$,0.012);
#1044=IFCREINFORCINGBAR('3bqldpkif2BvkrWH20Garo',$,'Column Dowel',$,$,#1060,#1052,$,$,$,$,$,$,$);
#1045=IFCCARTESIANPOINT((0.,0.,0.));
#1046=IFCDIRECTION((0.,0.,1.));
#1047=IFCDIRECTION((1.,0.,0.));
#1048=IFCAXIS2PLACEMENT3D(#1045,#1046,#1047);
#1049=IFCDIRECTION((0.,0.,1.));
#1050=IFCEXTRUDEDAREASOLID(#1043,#1048,#1049,0.12);
#1051=IFCSHAPEREPRESENTATION(#11,'Body','SweptSolid',(#1050));
#1052=IFCPRODUCTDEFINITIONSHAPE($,$,(#1051));
#1056=IFCCARTESIANPOINT((3.3500000000000001,2.0500000000000003,3.5));
#1057=IFCDIRECTION((0.,0.,1.));
#1058=IFCDIRECTION((1.,0.,0.));
#1059=IFCAXIS2PLACEMENT3D(#1056,#1057,#1058);
#1060=IFCLOCALPLACEMENT($,#1059);
#1061=IFCCIRCLEPROFILEDEF(.AREA.,$,$,0.012);
#1062=IFCREINFORCINGBAR('22IujW48H9vxZodpApHSxO',$,'Column Dowel',$,$,#1078,#1070,$,$,$,$,$,$,$);
#1063=IFCCARTESIANPOINT((0.,0.,0.));
#1064=IFCDIRECTION((0.,0.,1.));
#1065=IFCDIRECTION((1.,0.,0.));
#1066=IFCAXIS2PLACEMENT3D(#1063,#1064,#1065);
#1067=IFCDIRECTION((0.,0.,1.));
#1068=IFCEXTRUDEDAREASOLID(#1061,#1066,#1067,0.12);
#1069=IFCSHAPEREPRESENTATION(#11,'Body','SweptSolid',(#1068));
#1070=IFCPRODUCTDEFINITIONSHAPE($,$,(#1069));
#1074=IFCCARTESIANPOINT((3.0500000000000003,2.3500000000000001,3.5));
#1075=IFCDIRECTION((0.,0.,1.));
#1076=IFCDIRECTION((1.,0.,0.));
#1077=IFCAXIS2PLACEMENT3D(#1074,#1075,#1076);
#1078=IFCLOCALPLACEMENT($,#1077);
#1079=IFCCIRCLEPROFILEDEF(.AREA.,$,$,0.012);
#1080=IFCREINFORCINGBAR('0qT594PDf2kOTPe$eurKj6',$,'Column Dowel',$,$,#1096,#1088,$,$,$,$,$,$,$);
#1081=IFCCARTESIANPOINT((0.,0.,0.));
#1082=IFCDIRECTION((0.,0.,1.));
#1083=IFCDIRECTION((1.,0.,0.));
#1084=IFCAXIS2PLACEMENT3D(#1081,#1082,#1083);
#1085=IFCDIRECTION((0.,0.,1.));
#1086=IFCEXTRUDEDAREASOLID(#1079,#1084,#1085,0.12);
#1087=IFCSHAPEREPRESENTATION(#11,'Body','SweptSolid',(#1086));
#1088=IFCPRODUCTDEFINITIONSHAPE($,$,(#1087));
#1092=IFCCARTESIANPOINT((3.3500000000000001,2.3500000000000001,3.5));
#1093=IFCDIRECTION((0.,0.,1.));
#1094=IFCDIRECTION((1.,0.,0.));
#1095=IFCAXIS2PLACEMENT3D(#1092,#1093,#1094);
#1096=IFCLOCALPLACEMENT($,#1095);
#1097=IFCRECTANGLEPROFILEDEF(.AREA.,$,$,10.6,1.);
#1098=IFCSLAB('3U_yDMNyj6CxqCFzeIKxKf',$,'Retaining Wall Base',$,$,#1115,#1106,$,$);
#1099=IFCCARTESIANPOINT((0.,0.,0.));
#1100=IFCDIRECTION((0.,0.,1.));
#1101=IFCDIRECTION((1.,0.,0.));
#1102=IFCAXIS2PLACEMENT3D(#1099,#1100,#1101);
#1103=IFCDIRECTION((0.,0.,1.));
#1104=IFCEXTRUDEDAREASOLID(#1097,#1102,#1103,0.5);
#1105=IFCSHAPEREPRESENTATION(#11,'Body','SweptSolid',(#1104));
#1106=IFCPRODUCTDEFINITIONSHAPE($,$,(#1105));
#1110=IFCRELASSOCIATESMATERIAL('3Yjg9cHjf0EfVqyZNnxCPK',$,$,$,(#1116,#1098,#1137),#35);
#1111=IFCCARTESIANPOINT((0.,4.,0.));
#1112=IFCDIRECTION((0.,0.,1.));
#1113=IFCDIRECTION((1.,0.,0.));
#1114=IFCAXIS2PLACEMENT3D(#1111,#1112,#1113);
#1115=IFCLOCALPLACEMENT($,#1114);
#1116=IFCWALL('0TmPM_BPL9uPjoUnWBVxjL',$,'Retaining Wall Stem',$,$,#1135,#1127,$,$);
#1117=IFCCARTESIANPOINTLIST2D(((0.,0.),(0.,0.45000000000000001),(10.,0.45000000000000001),(10.,0.),(0.,0.)));
#1118=IFCINDEXEDPOLYCURVE(#1117,$,.F.);
#1119=IFCDIRECTION((0.,0.,1.));
#1120=IFCARBITRARYCLOSEDPROFILEDEF(.AREA.,$,#1118);
#1121=IFCCARTESIANPOINT((0.,0.,0.));
#1122=IFCDIRECTION((0.,0.,1.));
#1123=IFCDIRECTION((1.,0.,0.));
#1124=IFCAXIS2PLACEMENT3D(#1121,#1122,#1123);
#1125=IFCEXTRUDEDAREASOLID(#1120,#1124,#1119,2.2000000000000002);
#1126=IFCSHAPEREPRESENTATION(#11,'Body','SweptSolid',(#1125));
#1127=IFCPRODUCTDEFINITIONSHAPE($,$,(#1126));
#1131=IFCCARTESIANPOINT((0.,4.,0.5));
#1132=IFCDIRECTION((0.,0.,1.));
#1133=IFCDIRECTION((1.,0.,0.));
#1134=IFCAXIS2PLACEMENT3D(#1131,#1132,#1133);
#1135=IFCLOCALPLACEMENT($,#1134);
#1136=IFCRECTANGLEPROFILEDEF(.AREA.,$,$,10.199999999999999,0.59999999999999998);
#1137=IFCSLAB('3a_JzYGDTCtOZcoL762DgL',$,'Retaining Wall Cap',$,$,#1153,#1145,$,$);
#1138=IFCCARTESIANPOINT((0.,0.,0.));
#1139=IFCDIRECTION((0.,0.,1.));
#1140=IFCDIRECTION((1.,0.,0.));
#1141=IFCAXIS2PLACEMENT3D(#1138,#1139,#1140);
#1142=IFCDIRECTION((0.,0.,1.));
#1143=IFCEXTRUDEDAREASOLID(#1136,#1141,#1142,0.25);
#1144=IFCSHAPEREPRESENTATION(#11,'Body','SweptSolid',(#1143));
#1145=IFCPRODUCTDEFINITIONSHAPE($,$,(#1144));
#1149=IFCCARTESIANPOINT((0.,4.,2.7000000000000002));
#1150=IFCDIRECTION((0.,0.,1.));
#1151=IFCDIRECTION((1.,0.,0.));
#1152=IFCAXIS2PLACEMENT3D(#1149,#1150,#1151);
#1153=IFCLOCALPLACEMENT($,#1152);
#1154=IFCCIRCLEPROFILEDEF(.AREA.,$,$,0.035000000000000003);
#1155=IFCBUILDINGELEMENTPROXY('3adB9yvzH4cuBSLmhlydRG',$,'Retaining Wall Weep',$,$,#1174,#1163,$,$);
#1156=IFCCARTESIANPOINT((0.,0.,0.));
#1157=IFCDIRECTION((0.,0.,1.));
#1158=IFCDIRECTION((1.,0.,0.));
#1159=IFCAXIS2PLACEMENT3D(#1156,#1157,#1158);
#1160=IFCDIRECTION((0.,0.,1.));
#1161=IFCEXTRUDEDAREASOLID(#1154,#1159,#1160,0.02);
#1162=IFCSHAPEREPRESENTATION(#11,'Body','SweptSolid',(#1161));
#1163=IFCPRODUCTDEFINITIONSHAPE($,$,(#1162));
#1169=IFCRELASSOCIATESMATERIAL('0cnIGwhWL5V8nh3V7E0avu',$,$,$,(#1176,#1236,#1155,#1216,#1196),#63);
#1170=IFCCARTESIANPOINT((-4.,4.2249999999999996,0.35999999999999999));
#1171=IFCDIRECTION((0.,1.,0.));
#1172=IFCDIRECTION((0.,0.,1.));
#1173=IFCAXIS2PLACEMENT3D(#1170,#1171,#1172);
#1174=IFCLOCALPLACEMENT($,#1173);
#1175=IFCCIRCLEPROFILEDEF(.AREA.,$,$,0.035000000000000003);
#1176=IFCBUILDINGELEMENTPROXY('23qLaccJbD6QQMnaF8ggjS',$,'Retaining Wall Weep',$,$,#1194,#1184,$,$);
#1177=IFCCARTESIANPOINT((0.,0.,0.));
#1178=IFCDIRECTION((0.,0.,1.));
#1179=IFCDIRECTION((1.,0.,0.));
#1180=IFCAXIS2PLACEMENT3D(#1177,#1178,#1179);
#1181=IFCDIRECTION((0.,0.,1.));
#1182=IFCEXTRUDEDAREASOLID(#1175,#1180,#1181,0.02);
#1183=IFCSHAPEREPRESENTATION(#11,'Body','SweptSolid',(#1182));
#1184=IFCPRODUCTDEFINITIONSHAPE($,$,(#1183));
#1190=IFCCARTESIANPOINT((-2.,4.2249999999999996,0.35999999999999999));
#1191=IFCDIRECTION((0.,1.,0.));
#1192=IFCDIRECTION((0.,0.,1.));
#1193=IFCAXIS2PLACEMENT3D(#1190,#1191,#1192);
#1194=IFCLOCALPLACEMENT($,#1193);
#1195=IFCCIRCLEPROFILEDEF(.AREA.,$,$,0.035000000000000003);
#1196=IFCBUILDINGELEMENTPROXY('3qK_qbGSnEKxPIc6ibuxxP',$,'Retaining Wall Weep',$,$,#1214,#1204,$,$);
#1197=IFCCARTESIANPOINT((0.,0.,0.));
#1198=IFCDIRECTION((0.,0.,1.));
#1199=IFCDIRECTION((1.,0.,0.));
#1200=IFCAXIS2PLACEMENT3D(#1197,#1198,#1199);
#1201=IFCDIRECTION((0.,0.,1.));
#1202=IFCEXTRUDEDAREASOLID(#1195,#1200,#1201,0.02);
#1203=IFCSHAPEREPRESENTATION(#11,'Body','SweptSolid',(#1202));
#1204=IFCPRODUCTDEFINITIONSHAPE($,$,(#1203));
#1210=IFCCARTESIANPOINT((0.,4.2249999999999996,0.35999999999999999));
#1211=IFCDIRECTION((0.,1.,0.));
#1212=IFCDIRECTION((0.,0.,1.));
#1213=IFCAXIS2PLACEMENT3D(#1210,#1211,#1212);
#1214=IFCLOCALPLACEMENT($,#1213);
#1215=IFCCIRCLEPROFILEDEF(.AREA.,$,$,0.035000000000000003);
#1216=IFCBUILDINGELEMENTPROXY('3gcJ86Ha1Ai8Uu1Gw2323R',$,'Retaining Wall Weep',$,$,#1234,#1224,$,$);
#1217=IFCCARTESIANPOINT((0.,0.,0.));
#1218=IFCDIRECTION((0.,0.,1.));
#1219=IFCDIRECTION((1.,0.,0.));
#1220=IFCAXIS2PLACEMENT3D(#1217,#1218,#1219);
#1221=IFCDIRECTION((0.,0.,1.));
#1222=IFCEXTRUDEDAREASOLID(#1215,#1220,#1221,0.02);
#1223=IFCSHAPEREPRESENTATION(#11,'Body','SweptSolid',(#1222));
#1224=IFCPRODUCTDEFINITIONSHAPE($,$,(#1223));
#1230=IFCCARTESIANPOINT((2.,4.2249999999999996,0.35999999999999999));
#1231=IFCDIRECTION((0.,1.,0.));
#1232=IFCDIRECTION((0.,0.,1.));
#1233=IFCAXIS2PLACEMENT3D(#1230,#1231,#1232);
#1234=IFCLOCALPLACEMENT($,#1233);
#1235=IFCCIRCLEPROFILEDEF(.AREA.,$,$,0.035000000000000003);
#1236=IFCBUILDINGELEMENTPROXY('1caeV3Kvf0Ef$DbKpBKzNu',$,'Retaining Wall Weep',$,$,#1254,#1244,$,$);
#1237=IFCCARTESIANPOINT((0.,0.,0.));
#1238=IFCDIRECTION((0.,0.,1.));
#1239=IFCDIRECTION((1.,0.,0.));
#1240=IFCAXIS2PLACEMENT3D(#1237,#1238,#1239);
#1241=IFCDIRECTION((0.,0.,1.));
#1242=IFCEXTRUDEDAREASOLID(#1235,#1240,#1241,0.02);
#1243=IFCSHAPEREPRESENTATION(#11,'Body','SweptSolid',(#1242));
#1244=IFCPRODUCTDEFINITIONSHAPE($,$,(#1243));
#1250=IFCCARTESIANPOINT((4.,4.2249999999999996,0.35999999999999999));
#1251=IFCDIRECTION((0.,1.,0.));
#1252=IFCDIRECTION((0.,0.,1.));
#1253=IFCAXIS2PLACEMENT3D(#1250,#1251,#1252);
#1254=IFCLOCALPLACEMENT($,#1253);
ENDSEC;
END-ISO-10303-21;
